<svg xmlns="http://www.w3.org/2000/svg" xml:space="preserve" width="1024" height="1024"><path fill="#769CC9" d="M825.236 813.809c-47.365 22.184-100.243 34.583-156.021 34.583-199.816 0-362.503-159.138-368.217-357.577v-.018c-.202-.486-.419-.938-.637-1.423 1.826 144.157 53.666 276.285 138.962 379.795 47.3 17.894 98.586 27.694 152.151 27.694 119.259 0 227.176-48.556 305.068-126.966a367.032 367.032 0 0 1-71.306 43.912z"/><path fill="#1C233D" d="M896.679 769.795c-10.673 26.523-24.68 51.337-41.485 73.956-32.771 44.082-76.167 79.784-126.431 103.31-41.485 19.436-87.644 30.562-136.315 31.229-1.576.02-3.149.036-4.726.036h-.032a405.522 405.522 0 0 1-8.615-.117c-.552-.017-1.087-.017-1.641-.034-7.641-.17-15.247-.52-22.803-1.04a612.837 612.837 0 0 1-115.307-107.966c47.3 17.894 98.586 27.694 152.151 27.694 119.259 0 227.176-48.556 305.068-126.966.051-.034.085-.07.136-.102z"/><path fill="#182A5B" d="M479.003 306.202c1.132.015 2.256.059 3.385.085a333.87 333.87 0 0 0-7.827-.093c-52.375 0-101.919 12.097-146 33.627-17.61 42.221-27.596 88.43-28.214 136.902-.035 1.575-.035 3.167-.035 4.758 0 1.592 0 3.166.035 4.758l.049 3.201c.217.451.419.905.604 1.356.083.15.15.319.217.47a167.074 167.074 0 0 1-.368-11.243c0-95.971 77.808-173.779 173.779-173.779 95.955 0 173.763 77.808 173.763 173.779 0 94.044-74.709 170.628-167.999 173.662 122.108-2.429 229.655-64.339 294.797-157.946-18.53-38.721-44.315-73.302-75.596-102.002a334.89 334.89 0 0 0-35.303-28.238 334.986 334.986 0 0 1 35.305 28.229c31.28 28.701 57.065 63.282 75.597 102.003a342.659 342.659 0 0 0 3.535-5.177c.201-.301.402-.604.604-.889a298.181 298.181 0 0 0 3.133-4.791c.185-.286.385-.587.569-.872a356.733 356.733 0 0 0 3.352-5.346 303.601 303.601 0 0 0 3.535-5.846 240.008 240.008 0 0 0 2.865-4.927l.904-1.608a309 309 0 0 0 2.865-5.161c.05-.083.1-.183.15-.269a476.903 476.903 0 0 0 3.149-5.964c.838-1.592 1.644-3.2 2.446-4.809a50.74 50.74 0 0 0 1.056-2.145 164.12 164.12 0 0 0 2.229-4.589c.269-.537.521-1.09.771-1.643a148.928 148.928 0 0 0 2.146-4.674c.233-.502.47-1.005.669-1.509a126.952 126.952 0 0 0 1.943-4.423c.219-.451.403-.889.588-1.34-89.873-76.181-205.899-122.492-332.698-123.547z"/><path fill="#1C233D" d="M816.978 144.704c-1.625-.704-3.267-1.425-4.907-2.129-44.167-18.748-92.737-29.136-143.739-29.136-147.308 0-274.409 86.588-333.185 211.612a333.864 333.864 0 0 0-6.584 14.778c42.708-20.876 90.542-32.873 141.091-33.611 1.643-.016 3.267-.033 4.909-.033 1.492 0 2.966.017 4.44.017 126.799 1.055 242.825 47.366 332.698 123.549a495.098 495.098 0 0 1 15.447 13.605 526.074 526.074 0 0 1 46.712 48.755c18.447-40.026 28.735-84.611 28.735-131.591.001-83.52-32.537-159.454-85.617-215.816z"/><path fill="#254C9F" d="M827.148 443.356a496.248 496.248 0 0 0-15.447-13.605 366.732 366.732 0 0 1-36.509 65.98 330.766 330.766 0 0 1 16.995 43.107 330.508 330.508 0 0 0-16.998-43.099C710.047 589.347 602.5 651.257 480.392 653.686c-1.912.068-3.837.101-5.765.101-.569 0-1.139 0-1.708-.016h-.085c35.587 13.955 74.357 21.629 114.904 21.629 83.69 0 159.757-32.671 216.153-85.936a329.99 329.99 0 0 0 .002.009c29.119-27.526 52.995-60.52 69.967-97.362a526.069 526.069 0 0 0-46.712-48.755z"/><path fill="#254C9F" d="M668.329 113.448c52.894 0 103.191 11.159 148.646 31.264-57.4-60.969-138.879-99.037-229.237-99.037-41.3 0-81.344 5.362-119.477 15.449-199.666 52.76-346.856 234.631-346.856 450.868 0 246.412 191.122 448.152 433.227 465.142-152.033-109.291-251.723-286.822-254.27-487.761v-.016c-.067-.185-.15-.352-.218-.521.067.168.134.319.218.486a602.802 602.802 0 0 1-.051-7.841c0-2.206.058-4.398.08-6.599 3.522-200.201 166.895-361.434 367.938-361.434zm-245.574 1.377c-1.534 2.039-3.029 4.109-4.538 6.166 1.51-2.057 3.003-4.127 4.538-6.166zM318.829 331.812c-.779 3.087-1.512 6.193-2.245 9.298a617.255 617.255 0 0 1 2.245-9.298zm-3.382 14.125a621.516 621.516 0 0 0-2.039 9.433c.663-3.151 1.327-6.3 2.039-9.433zM300.614 463.06zm-3.334 19.209c-.352-.838-.688-1.692-1.039-2.53.419.988.821 1.993 1.24 2.983a100.93 100.93 0 0 0-.201-.453z"/></svg>